<svg width="72" height="72" viewBox="0 0 72 72" fill="none" xmlns="http://www.w3.org/2000/svg">
<path d="M38.25 40.914V31.086C39.7512 30.5552 41.0165 29.5109 41.8222 28.1374C42.6279 26.764 42.9221 25.15 42.6528 23.5806C42.3835 22.0112 41.5682 20.5876 40.3508 19.5613C39.1333 18.535 37.5923 17.972 36 17.972C34.4077 17.972 32.8667 18.535 31.6493 19.5613C30.4319 20.5876 29.6165 22.0112 29.3472 23.5806C29.078 25.15 29.3722 26.764 30.1778 28.1374C30.9835 29.5109 32.2488 30.5552 33.75 31.086V40.9163C32.2488 41.447 30.9835 42.4914 30.1778 43.8648C29.3722 45.2383 29.078 46.8523 29.3472 48.4217C29.6165 49.991 30.4319 51.4147 31.6493 52.441C32.8667 53.4673 34.4077 54.0302 36 54.0302C37.5923 54.0302 39.1333 53.4673 40.3508 52.441C41.5682 51.4147 42.3835 49.991 42.6528 48.4217C42.9221 46.8523 42.6279 45.2383 41.8222 43.8648C41.0165 42.4914 39.7512 41.4448 38.25 40.914ZM36 22.5C36.445 22.5 36.88 22.632 37.25 22.8792C37.6201 23.1264 37.9084 23.4778 38.0787 23.889C38.249 24.3001 38.2936 24.7525 38.2068 25.189C38.12 25.6254 37.9057 26.0263 37.591 26.341C37.2763 26.6557 36.8754 26.87 36.439 26.9568C36.0025 27.0436 35.5501 26.999 35.139 26.8287C34.7278 26.6584 34.3764 26.3701 34.1292 26C33.882 25.63 33.75 25.195 33.75 24.75C33.75 24.1533 33.9871 23.581 34.409 23.159C34.831 22.7371 35.4033 22.5 36 22.5ZM36 49.5C35.555 49.5 35.12 49.368 34.75 49.1208C34.38 48.8736 34.0916 48.5222 33.9213 48.111C33.751 47.6999 33.7064 47.2475 33.7932 46.8111C33.8801 46.3746 34.0944 45.9737 34.409 45.659C34.7237 45.3443 35.1246 45.1301 35.5611 45.0432C35.9975 44.9564 36.4499 45.001 36.8611 45.1713C37.2722 45.3416 37.6236 45.63 37.8708 46C38.1181 46.37 38.25 46.805 38.25 47.25C38.25 47.8467 38.013 48.419 37.591 48.841C37.169 49.263 36.5968 49.5 36 49.5Z" fill="black"/>
<path d="M68.4316 39.1815C69.2752 38.3376 69.7491 37.1933 69.7491 36C69.7491 34.8068 69.2752 33.6624 68.4316 32.8185L55.4108 19.7978L61.9358 13.3583C62.8983 13.5978 63.9129 13.5131 64.8222 13.1171C65.7316 12.7212 66.4848 12.0362 66.9651 11.1684C67.4454 10.3007 67.6258 9.29864 67.4785 8.31783C67.3311 7.33703 66.8641 6.43229 66.15 5.74398C65.4359 5.05567 64.5146 4.62229 63.5291 4.51107C62.5435 4.39985 61.5488 4.61702 60.6993 5.12887C59.8498 5.64073 59.1929 6.41865 58.8307 7.34195C58.4684 8.26524 58.421 9.28228 58.6958 10.2353L52.2293 16.6163L39.1816 3.56626C38.3377 2.72264 37.1933 2.24872 36.0001 2.24872C34.8068 2.24872 33.6624 2.72264 32.8186 3.56626L19.7978 16.5915L13.3583 10.062C13.5967 9.09935 13.5107 8.08493 13.1136 7.17614C12.7166 6.26735 12.0308 5.51498 11.1625 5.03575C10.2943 4.55652 9.29214 4.37722 8.31158 4.52567C7.33103 4.67412 6.42687 5.14201 5.73937 5.85677C5.05188 6.57153 4.61948 7.49319 4.50925 8.47877C4.39903 9.46436 4.61714 10.4588 5.12976 11.3077C5.64237 12.1567 6.42083 12.8128 7.34437 13.1742C8.26791 13.5356 9.2849 13.5821 10.2376 13.3065L16.6163 19.7708L3.56632 32.8185C2.7227 33.6624 2.24878 34.8068 2.24878 36C2.24878 37.1933 2.7227 38.3376 3.56632 39.1815L16.6163 52.2293L10.2376 58.6935C9.28691 58.4197 8.27248 58.4671 7.35151 58.8284C6.43055 59.1897 5.65448 59.8448 5.14361 60.6919C4.63274 61.5391 4.4156 62.5312 4.52583 63.5143C4.63607 64.4975 5.06754 65.4168 5.75335 66.1298C6.43916 66.8428 7.34102 67.3097 8.31914 67.4581C9.29725 67.6064 10.297 67.428 11.1634 66.9504C12.0298 66.4729 12.7145 65.7229 13.1113 64.8166C13.5082 63.9104 13.595 62.8986 13.3583 61.938L19.7978 55.413L32.8186 68.4315C33.6624 69.2751 34.8068 69.7491 36.0001 69.7491C37.1933 69.7491 38.3377 69.2751 39.1816 68.4315L52.2316 55.3838L58.6936 61.7648C58.4198 62.7154 58.4672 63.7298 58.8285 64.6508C59.1898 65.5718 59.8448 66.3478 60.692 66.8587C61.5392 67.3696 62.5312 67.5867 63.5144 67.4765C64.4975 67.3663 65.4169 66.9348 66.1299 66.249C66.8429 65.5632 67.3097 64.6613 67.4581 63.6832C67.6065 62.7051 67.4281 61.7053 66.9505 60.8389C66.4729 59.9725 65.7229 59.2878 64.8167 58.891C63.9105 58.4942 62.8987 58.4074 61.9381 58.644L55.4131 52.2023L68.4316 39.1815ZM36.0001 65.25L6.75007 36L36.0001 6.75001L65.2501 36L36.0001 65.25Z" fill="black"/>
</svg>
